<svg version="1.1" xmlns="http://www.w3.org/2000/svg" xmlns:xlink="http://www.w3.org/1999/xlink" width="48" height="48"><defs><linearGradient x1="11.13694" y1="9.1503" x2="58.0763" y2="60.0629" gradientUnits="userSpaceOnUse" id="color-1"><stop offset="0.43" stop-color="#000000" stop-opacity="0.14"></stop><stop offset="1" stop-color="#000000" stop-opacity="0"></stop></linearGradient><filter id="dropshadow-base"><feColorMatrix type="matrix" values="0 0 0 0 0  0 0 0 0 0  0 0 0 0 0  0 0 0 .8 0"></feColorMatrix> <feOffset dx="0" dy="1"></feOffset> <feGaussianBlur stdDeviation="1"></feGaussianBlur> <feComposite in="SourceGraphic"></feComposite></filter><filter id="dropshadow-banner" x="-10%" y="-10%" width="120%" height="130%"><feColorMatrix type="matrix" values="0 0 0 0 0  0 0 0 0 0  0 0 0 0 0  0 0 0 .4 0"></feColorMatrix> <feOffset dx="0" dy="1"></feOffset> <feGaussianBlur stdDeviation="0.5"></feGaussianBlur> <feComposite in="SourceGraphic"></feComposite></filter></defs><g fill="none" fill-rule="nonzero" stroke="none" stroke-width="none" stroke-linecap="butt" stroke-linejoin="miter" stroke-miterlimit="10" stroke-dasharray="" stroke-dashoffset="0" font-family="none" font-weight="none" font-size="none" text-anchor="none" style="mix-blend-mode: normal"><path d="M2,24c0,-12.15026 9.84974,-22 22,-22c12.15026,0 22,9.84974 22,22c0,12.15026 -9.84974,22 -22,22c-12.15026,0 -22,-9.84974 -22,-22z" id="base 1 5" fill="#db2323" stroke-width="1"></path><path d="M15.73905,31.38912c-2.84416,-2.84416 -4.60212,-6.77455 -4.60212,-11.11941c0,-4.34486 1.75795,-8.27525 4.60212,-11.11941l4.01346,4.01346c1.79994,-1.79994 4.3011,-2.89867 7.10596,-2.89867c2.80486,0 5.30602,1.09872 7.10596,2.89866l12.00505,12.00505c-0.50712,9.6879 -7.2816,17.71592 -16.34506,20.10568z" fill="url(#color-1)" stroke-width="1"></path><path d="M31.14615,35.99124c-0.40733,0 -0.80752,-0.08575 -1.09336,-0.21438c-1.00761,-0.53596 -1.73651,-1.26487 -2.44398,-3.40871c-0.73605,-2.22245 -2.10097,-3.27294 -3.42301,-4.29484c-1.12909,-0.87183 -2.30106,-1.77225 -3.30867,-3.60881c-0.75035,-1.37206 -1.16482,-2.86561 -1.16482,-4.19479c0,-4.00899 3.13716,-7.14615 7.14615,-7.14615c4.00899,0 7.14615,3.13716 7.14615,7.14615h2.85846c0,-5.60973 -4.39488,-10.00461 -10.00461,-10.00461c-5.60973,0 -10.00461,4.39488 -10.00461,10.00461c0,1.80798 0.54311,3.78746 1.52213,5.574c1.3006,2.36538 2.83702,3.54449 4.07331,4.50207c1.15768,0.89327 1.99378,1.53642 2.45113,2.92278c0.85754,2.59405 1.96519,4.05901 3.89465,5.07377c0.7432,0.33587 1.52928,0.50738 2.35108,0.50738c3.15145,0 5.71692,-2.56547 5.71692,-5.71692h-2.85846c0,1.5793 -1.27916,2.85846 -2.85846,2.85846zM17.76141,11.17266l-2.02236,-2.02236c-2.84417,2.84417 -4.60212,6.77455 -4.60212,11.11941c0,4.34486 1.75795,8.27524 4.60212,11.11941l2.02236,-2.02236c-2.32965,-2.32965 -3.76602,-5.54541 -3.76602,-9.09705c0,-3.55164 1.43638,-6.7674 3.76602,-9.09705zM23.28538,20.26971c0,1.97234 1.60074,3.57308 3.57308,3.57308c1.97234,0 3.57308,-1.60074 3.57308,-3.57308c0,-1.97234 -1.60074,-3.57308 -3.57308,-3.57308c-1.97234,0 -3.57308,1.60074 -3.57308,3.57308z" fill="none" stroke-width="0"></path><path d="M34.00461,33.13278h2.85846c0,3.15145 -2.56547,5.71692 -5.71692,5.71692c-0.82181,0 -1.60788,-0.17151 -2.35108,-0.50738c-1.92946,-1.01475 -3.03711,-2.47971 -3.89465,-5.07377c-0.45735,-1.38635 -1.29345,-2.02951 -2.45113,-2.92278c-1.23628,-0.95758 -2.77271,-2.1367 -4.07331,-4.50207c-0.97902,-1.78654 -1.52213,-3.76602 -1.52213,-5.574c0,-5.60973 4.39488,-10.00461 10.00461,-10.00461c5.60973,0 10.00461,4.39488 10.00461,10.00461h-2.85846c0,-4.00899 -3.13716,-7.14615 -7.14615,-7.14615c-4.00899,0 -7.14615,3.13716 -7.14615,7.14615c0,1.32918 0.41448,2.82273 1.16482,4.19479c1.00761,1.83656 2.17958,2.73698 3.30867,3.60881c1.32204,1.0219 2.68695,2.07238 3.42301,4.29484c0.70747,2.14385 1.43638,2.87275 2.44398,3.40871c0.28585,0.12863 0.68603,0.21438 1.09336,0.21438c1.5793,0 2.85846,-1.27916 2.85846,-2.85846zM13.99539,20.26971c0,3.55164 1.43638,6.7674 3.76602,9.09705l-2.02236,2.02236c-2.84417,-2.84417 -4.60212,-6.77455 -4.60212,-11.11941c0,-4.34486 1.75795,-8.27524 4.60212,-11.11941l2.02236,2.02236c-2.32965,2.32965 -3.76602,5.54541 -3.76602,9.09705zM26.85846,16.69663c1.97234,0 3.57308,1.60074 3.57308,3.57308c0,1.97234 -1.60074,3.57308 -3.57308,3.57308c-1.97234,0 -3.57308,-1.60074 -3.57308,-3.57308c0,-1.97234 1.60074,-3.57308 3.57308,-3.57308z" fill="#ffffff" stroke-width="0"></path><path d="M2,24c0,-12.15026 9.84974,-22 22,-22c12.15026,0 22,9.84974 22,22c0,12.15026 -9.84974,22 -22,22c-12.15026,0 -22,-9.84974 -22,-22z" id="base 1 1 1" fill="none" stroke-width="1"></path><g fill="#000000" stroke-width="1" font-family="Roboto, sans-serif" font-weight="400" font-size="14" text-anchor="start"></g><rect x="2" y="2" width="44" height="22" fill="none" stroke-width="1"></rect><path d="M2,24v-22h44v22z" fill="none" stroke-width="1"></path><path d="M2,24v-22h44v22z" fill="none" stroke-width="1"></path><path d="M2,24v-22h44v22z" fill="none" stroke-width="1"></path><path d="M2,24v-22h44v22z" fill="none" stroke-width="1"></path></g></svg>